<svg width="109" height="29" viewBox="0 0 109 29" fill="none" xmlns="http://www.w3.org/2000/svg">
<path fill-rule="evenodd" clip-rule="evenodd" d="M107.697 23.2V28H99.2971C98.3905 28 97.6505 27.7067 97.0771 27.12C96.5038 26.5333 96.2171 25.7867 96.2171 24.88V12.96H90.3372V8.16H96.2171V0H101.257V8.16H108.417V12.96H101.257V22C101.257 22.8 101.617 23.2 102.337 23.2H107.697ZM9.72001 28.56C12.3333 28.56 14.36 27.9733 15.8 26.8C17.24 25.6267 17.96 24.0533 17.96 22.08V21.84C17.96 20.0533 17.32 18.66 16.04 17.66C14.76 16.66 13.1067 16.0533 11.08 15.84C9.32001 15.6533 8.10667 15.42 7.44001 15.14C6.77334 14.86 6.44001 14.4 6.44001 13.76C6.44001 13.3067 6.65334 12.9267 7.08001 12.62C7.50667 12.3133 8.14667 12.16 9.00001 12.16C9.93334 12.16 10.6933 12.3667 11.28 12.78C11.8667 13.1933 12.28 13.76 12.52 14.48L17.08 12.64C16.8667 12.08 16.56 11.5 16.16 10.9C15.76 10.3 15.24 9.75333 14.6 9.26C13.96 8.76667 13.18 8.36667 12.26 8.06C11.34 7.75333 10.2533 7.6 9.00001 7.6C8.04001 7.6 7.10667 7.73333 6.20001 8C5.29334 8.26667 4.49334 8.66 3.80001 9.18C3.10667 9.7 2.54667 10.3333 2.12001 11.08C1.69334 11.8267 1.48001 12.6933 1.48001 13.68V13.92C1.48001 15.8133 2.14001 17.2467 3.46001 18.22C4.78001 19.1933 6.56001 19.7733 8.80001 19.96C9.62667 20.04 10.3133 20.1467 10.86 20.28C11.4067 20.4133 11.84 20.58 12.16 20.78C12.48 20.98 12.7 21.1933 12.82 21.42C12.94 21.6467 13 21.8933 13 22.16C13 22.6133 12.7667 23.0333 12.3 23.42C11.8333 23.8067 10.9733 24 9.72001 24C8.30667 24 7.26001 23.68 6.58001 23.04C5.90001 22.4 5.45334 21.6533 5.24001 20.8L0.600006 22.32C0.733339 23.0133 0.993339 23.7267 1.38001 24.46C1.76667 25.1933 2.32001 25.86 3.04001 26.46C3.76001 27.06 4.66667 27.56 5.76001 27.96C6.85334 28.36 8.17334 28.56 9.72001 28.56ZM32.1743 28.56C35.001 28.56 37.261 27.84 38.9543 26.4C40.6476 24.96 41.721 23.0667 42.1743 20.72L37.2143 19.48C36.9743 20.7867 36.4476 21.8267 35.6343 22.6C34.821 23.3733 33.641 23.76 32.0943 23.76C31.3743 23.76 30.6943 23.6467 30.0543 23.42C29.4143 23.1933 28.8543 22.8533 28.3743 22.4C27.8943 21.9467 27.5143 21.38 27.2343 20.7C26.9543 20.02 26.8143 19.24 26.8143 18.36V18.12C26.8143 17.24 26.9543 16.4467 27.2343 15.74C27.5143 15.0333 27.8943 14.4333 28.3743 13.94C28.8543 13.4467 29.4143 13.0667 30.0543 12.8C30.6943 12.5333 31.3743 12.4 32.0943 12.4C33.641 12.4 34.841 12.8267 35.6943 13.68C36.5476 14.5333 37.0543 15.5467 37.2143 16.72L42.1743 15.44C41.721 13.0933 40.6343 11.2 38.9143 9.76C37.1943 8.32 34.9476 7.6 32.1743 7.6C30.7343 7.6 29.381 7.84 28.1143 8.32C26.8476 8.8 25.741 9.49333 24.7943 10.4C23.8476 11.3067 23.1076 12.4 22.5743 13.68C22.041 14.96 21.7743 16.4 21.7743 18V18.48C21.7743 20.08 22.041 21.5067 22.5743 22.76C23.1076 24.0133 23.841 25.0667 24.7743 25.92C25.7076 26.7733 26.8076 27.4267 28.0743 27.88C29.341 28.3333 30.7076 28.56 32.1743 28.56ZM58.5286 27.88C57.2886 28.3333 55.9886 28.56 54.6286 28.56C53.2686 28.56 51.9686 28.3333 50.7286 27.88C49.4886 27.4267 48.3886 26.7667 47.4286 25.9C46.4686 25.0333 45.7086 23.9667 45.1486 22.7C44.5886 21.4333 44.3086 19.9733 44.3086 18.32V17.84C44.3086 16.2133 44.5886 14.7667 45.1486 13.5C45.7086 12.2333 46.4686 11.16 47.4286 10.28C48.3886 9.4 49.4886 8.73333 50.7286 8.28C51.9686 7.82667 53.2686 7.6 54.6286 7.6C55.9886 7.6 57.2886 7.82667 58.5286 8.28C59.7686 8.73333 60.8686 9.4 61.8286 10.28C62.7886 11.16 63.5486 12.2333 64.1086 13.5C64.6686 14.7667 64.9486 16.2133 64.9486 17.84V18.32C64.9486 19.9733 64.6686 21.4333 64.1086 22.7C63.5486 23.9667 62.7886 25.0333 61.8286 25.9C60.8686 26.7667 59.7686 27.4267 58.5286 27.88ZM54.6286 23.76C53.9086 23.76 53.2286 23.64 52.5886 23.4C51.9486 23.16 51.3886 22.8133 50.9086 22.36C50.4286 21.9067 50.0486 21.3533 49.7686 20.7C49.4886 20.0467 49.3486 19.3067 49.3486 18.48V17.68C49.3486 16.8533 49.4886 16.1133 49.7686 15.46C50.0486 14.8067 50.4286 14.2533 50.9086 13.8C51.3886 13.3467 51.9486 13 52.5886 12.76C53.2286 12.52 53.9086 12.4 54.6286 12.4C55.3486 12.4 56.0286 12.52 56.6686 12.76C57.3086 13 57.8686 13.3467 58.3486 13.8C58.8286 14.2533 59.2086 14.8067 59.4886 15.46C59.7686 16.1133 59.9086 16.8533 59.9086 17.68V18.48C59.9086 19.3067 59.7686 20.0467 59.4886 20.7C59.2086 21.3533 58.8286 21.9067 58.3486 22.36C57.8686 22.8133 57.3086 23.16 56.6686 23.4C56.0286 23.64 55.3486 23.76 54.6286 23.76ZM81.2229 27.88C79.9829 28.3333 78.6829 28.56 77.3229 28.56C75.9629 28.56 74.6629 28.3333 73.4229 27.88C72.1829 27.4267 71.0829 26.7667 70.1229 25.9C69.1629 25.0333 68.4029 23.9667 67.8429 22.7C67.2829 21.4333 67.0029 19.9733 67.0029 18.32V17.84C67.0029 16.2133 67.2829 14.7667 67.8429 13.5C68.4029 12.2333 69.1629 11.16 70.1229 10.28C71.0829 9.4 72.1829 8.73333 73.4229 8.28C74.6629 7.82667 75.9629 7.6 77.3229 7.6C78.6829 7.6 79.9829 7.82667 81.2229 8.28C82.4629 8.73333 83.5629 9.4 84.5229 10.28C85.4829 11.16 86.2429 12.2333 86.8029 13.5C87.3629 14.7667 87.6429 16.2133 87.6429 17.84V18.32C87.6429 19.9733 87.3629 21.4333 86.8029 22.7C86.2429 23.9667 85.4829 25.0333 84.5229 25.9C83.5629 26.7667 82.4629 27.4267 81.2229 27.88ZM77.3229 23.76C76.6029 23.76 75.9229 23.64 75.2829 23.4C74.6429 23.16 74.0829 22.8133 73.6029 22.36C73.1229 21.9067 72.7429 21.3533 72.4629 20.7C72.1829 20.0467 72.0429 19.3067 72.0429 18.48V17.68C72.0429 16.8533 72.1829 16.1133 72.4629 15.46C72.7429 14.8067 73.1229 14.2533 73.6029 13.8C74.0829 13.3467 74.6429 13 75.2829 12.76C75.9229 12.52 76.6029 12.4 77.3229 12.4C78.0429 12.4 78.7229 12.52 79.3629 12.76C80.0029 13 80.5629 13.3467 81.0429 13.8C81.5229 14.2533 81.9029 14.8067 82.1829 15.46C82.4629 16.1133 82.6029 16.8533 82.6029 17.68V18.48C82.6029 19.3067 82.4629 20.0467 82.1829 20.7C81.9029 21.3533 81.5229 21.9067 81.0429 22.36C80.5629 22.8133 80.0029 23.16 79.3629 23.4C78.7229 23.64 78.0429 23.76 77.3229 23.76Z" fill="white"/>
</svg>
